<svg width="24" height="24" viewBox="0 0 24 24" fill="none" xmlns="http://www.w3.org/2000/svg">
<path fill-rule="evenodd" clip-rule="evenodd" d="M5.03592 15.64C7.94708 14.944 10.9706 16.02 12.8555 18.3766C10.0097 18.8535 8.33375 18.1191 8.30656 18.1071L7.75095 19.2698C7.85164 19.3183 9.01569 19.855 11.0159 19.855C12.431 19.855 14.2693 19.5753 16.4409 18.6703C17.4197 18.2624 18.625 18.5894 19.106 19.5343L19.4039 20.13L16.5228 21.5709C14.4533 22.6053 12.6682 22.9994 11.1191 23C9.3151 23 7.83025 22.4856 6.58446 22.054C6.50847 22.0277 6.43338 22.0017 6.35916 21.9761C6.24725 21.9375 6.13934 21.8996 6.03515 21.8631C5.07366 21.5261 4.42886 21.3001 3.88557 21.5709L3.30921 21.8591L1.00378 17.2488C1.07041 17.2193 1.17018 17.1647 1.3034 17.0917C1.89024 16.7705 3.12606 16.0939 5.03592 15.64ZM11.3557 12.9989V2.93293C11.3557 1.86707 12.2227 1 13.2886 1H13.9329V12.6405H12.6443C12.1728 12.6405 11.7363 12.777 11.3557 12.9989ZM22.9962 1H15.2215V12.6405H22.9962V1ZM22.3517 13.9292C21.9959 13.9292 21.7074 14.2175 21.7074 14.5735C21.7074 14.9293 21.9959 15.2178 22.3517 15.2178H22.996V16.5064H12.6441C11.9324 16.5064 11.3555 15.9294 11.3555 15.2178C11.3555 14.5061 11.9324 13.9292 12.6441 13.9292H22.3517Z" fill="white"/>
</svg>
