<svg width="24" height="24" viewBox="0 0 24 24" fill="none" xmlns="http://www.w3.org/2000/svg">
<path fill-rule="evenodd" clip-rule="evenodd" d="M17.4999 12.6471C14.2888 12.6471 11.6764 15.2595 11.6764 18.4706C11.6764 20.2982 12.5229 21.9315 13.8441 23H1.97052V1H17.4999V12.6471ZM14.9117 4.88235H7.14699V6.17647H14.9117V4.88235ZM14.9117 7.47059H7.14699V8.76471H14.9117V7.47059ZM14.9117 10.0588H7.14699V11.3529H14.9117V10.0588ZM11.6764 12.6471H7.14699V13.9412H11.6764V12.6471ZM4.55876 16.5294H5.85287V15.2353H4.55876V16.5294ZM4.55876 13.9412H5.85287V12.6471H4.55876V13.9412ZM4.55876 11.3529H5.85287V10.0588H4.55876V11.3529ZM4.55876 8.76471H5.85287V7.47059H4.55876V8.76471ZM4.55876 6.17647H5.85287V4.88235H4.55876V6.17647ZM7.14699 16.5294H9.73523V15.2353H7.14699V16.5294ZM12.9705 18.4707C12.9705 15.9692 14.9984 13.9413 17.4999 13.9413C20.0015 13.9413 22.0293 15.9692 22.0293 18.4707C21.8082 24.4708 13.1925 24.4724 12.9705 18.4707ZM15.263 18.7665L17.0146 20.5181L19.7369 17.7959L18.8219 16.8808L17.0147 18.688L16.1781 17.8514L15.263 18.7665Z" fill="white"/>
</svg>
