<svg width="24" height="24" viewBox="0 0 24 24" fill="none" xmlns="http://www.w3.org/2000/svg">
<g clip-path="url(#clip0_1_637)">
<path d="M14.1177 20.1177V19.4118H9.88237C10.0324 21.6463 8.84241 21.575 7.05884 21.5295V22.9413H16.9412V21.5295C15.7728 21.5469 14.1927 21.7359 14.1177 20.1177ZM12.7059 5.2942C12.701 4.37128 11.2989 4.37137 11.2941 5.29424C11.299 6.21712 12.7011 6.21702 12.7059 5.2942Z" fill="white"/>
<path d="M0 1.05884V14.4706H11.2941V12L8.94118 10.2353H6.93741C6.20009 12.4311 2.79642 11.8799 2.82353 9.52933C2.79661 7.17907 6.20047 6.62764 6.93737 8.82354H9.41177L11.2941 10.2353V7.29037C9.09831 6.55305 9.64955 3.14938 12.0001 3.17653C14.3504 3.14961 14.9018 6.55352 12.7059 7.29037V10.2353L14.5882 8.82354H17.0626C17.7999 6.62773 21.2036 7.17898 21.1764 9.52952C21.2033 11.8798 17.7995 12.4312 17.0626 10.2353H15.0588L12.7059 12V14.4706H24V1.05884H0ZM4.23529 4.58825H2.82353V3.17649H4.23529V4.58825ZM7.05882 4.58825H5.64706V3.17649H7.05882V4.58825ZM18.3529 4.58825H16.9412V3.17649H18.3529V4.58825ZM21.1765 4.58825H19.7647V3.17649H21.1765V4.58825Z" fill="white"/>
<path d="M4.23529 9.52932C4.24019 10.4522 5.64231 10.4521 5.64706 9.52927C5.64216 8.6064 4.24005 8.60649 4.23529 9.52932ZM0 15.8823H24V17.9999H0V15.8823ZM19.7647 9.52932C19.7598 8.6064 18.3577 8.60649 18.3529 9.52936C18.3578 10.4522 19.76 10.4521 19.7647 9.52932Z" fill="white"/>
</g>
<defs>
<clipPath id="clip0_1_637">
<rect width="24" height="24" fill="white"/>
</clipPath>
</defs>
</svg>
