<svg width="24" height="24" viewBox="0 0 24 24" fill="none" xmlns="http://www.w3.org/2000/svg">
<g clip-path="url(#clip0_1_621)">
<path d="M20.7977 12C22.5828 10.2506 23.5257 8.43305 22.8331 6.94833C22.006 5.17505 19.3182 4.88109 16.155 5.47805C15.3592 2.3588 13.957 0 11.9999 0C10.043 0 8.64079 2.3588 7.84495 5.47781C4.68163 4.88086 1.99387 5.175 1.16671 6.94833C0.474181 8.43305 1.41712 10.2506 3.20221 12C1.41712 13.7494 0.474181 15.567 1.16676 17.0517C2.1517 19.1636 5.55487 18.9493 7.84387 18.5179C8.63943 21.6392 10.0421 24 11.9999 24C13.9578 24 15.3605 21.6392 16.156 18.5179C18.4584 18.9517 21.8504 19.1575 22.8331 17.0516C23.5257 15.5669 22.5828 13.7494 20.7977 12ZM2.44115 7.54298C3.04331 6.25013 6.12623 6.59667 7.54171 6.85617C7.41407 7.53905 7.31273 8.24592 7.23777 8.96648C6.15459 9.61561 5.14377 10.3213 4.25807 11.0541C3.4296 10.2467 1.95257 8.58952 2.44115 7.54298ZM7.10966 13.2964C6.46284 12.875 5.8507 12.4435 5.30498 12C5.8507 11.5565 6.46284 11.1249 7.10966 10.7036C7.06809 11.6518 7.06724 12.329 7.10966 13.2964ZM2.44115 16.457C1.95229 15.4099 3.43124 13.7516 4.25812 12.9459C5.14382 13.6787 6.15463 14.3844 7.23782 15.0335C7.31282 15.7548 7.41431 16.4624 7.54209 17.146C4.83754 17.6427 2.86668 17.3719 2.44115 16.457ZM15.2421 8.11613C14.5147 7.73728 14.1931 7.59366 13.951 7.48205C14.3374 7.36181 14.7157 7.25339 15.0844 7.1587C15.1436 7.47671 15.1962 7.79592 15.2421 8.11613ZM11.9999 1.40625C13.0083 1.40625 14.0866 3.1245 14.7797 5.78517C13.8647 6.02016 12.929 6.31631 12.0002 6.66586C11.0713 6.31617 10.1355 6.01988 9.22035 5.78489C9.91331 3.1245 10.9916 1.40625 11.9999 1.40625ZM8.91609 7.1558C9.2857 7.25081 9.66538 7.35975 10.0528 7.48031C9.76855 7.61137 9.46874 7.74586 8.75788 8.11617C8.8039 7.79498 8.85664 7.47478 8.91609 7.1558ZM8.75788 15.8838C9.47882 16.2594 9.76884 16.3884 10.0495 16.5178C9.66295 16.6381 9.28452 16.7466 8.91562 16.8414C8.8563 16.5234 8.80371 16.2041 8.75788 15.8838ZM11.9999 22.5938C10.9914 22.5938 9.91288 20.8749 9.21988 18.2134C10.1355 17.9783 11.0704 17.6807 11.9999 17.331C12.9295 17.6807 13.8644 17.9783 14.78 18.2134C14.087 20.8749 13.0085 22.5938 11.9999 22.5938ZM15.0843 16.8412C14.7155 16.7465 14.337 16.638 13.9504 16.5177C14.2514 16.3793 14.5184 16.2607 15.242 15.8838C15.1961 16.204 15.1436 16.5232 15.0843 16.8412ZM15.4325 14.1876C14.2079 14.8748 13.1414 15.3677 11.9999 15.8236C10.8435 15.3617 9.79199 14.8748 8.56738 14.1876C8.45901 12.7817 8.45418 11.2811 8.56738 9.81244C9.80179 9.11963 10.8676 8.6288 11.9999 8.1765C13.1541 8.63742 14.2055 9.12375 15.4325 9.81244C15.5409 11.2183 15.5457 12.7189 15.4325 14.1876ZM21.5587 7.54298C22.0476 8.59013 20.5686 10.2484 19.7418 11.0541C18.8561 10.3213 17.8453 9.61561 16.7621 8.96648C16.6871 8.24527 16.5857 7.53773 16.4579 6.8543C19.1619 6.35794 21.1324 6.62897 21.5587 7.54298ZM16.8902 10.7036C17.5371 11.125 18.1492 11.5565 18.6949 12C18.1492 12.4435 17.5371 12.8751 16.8902 13.2964C16.9318 12.3482 16.9326 11.671 16.8902 10.7036ZM21.5587 16.457C21.1332 17.3707 19.1626 17.6419 16.4579 17.1456C16.5857 16.4621 16.6871 15.7547 16.7621 15.0335C17.8453 14.3844 18.8561 13.6787 19.7418 12.9459C20.5703 13.7533 22.0473 15.4105 21.5587 16.457Z" fill="white"/>
<path d="M12 9.89062C10.8368 9.89062 9.89062 10.8368 9.89062 12C9.89062 13.1632 10.8368 14.1094 12 14.1094C13.1632 14.1094 14.1094 13.1632 14.1094 12C14.1094 10.8368 13.1632 9.89062 12 9.89062Z" fill="white"/>
</g>
<defs>
<clipPath id="clip0_1_621">
<rect width="24" height="24" fill="white"/>
</clipPath>
</defs>
</svg>
