<svg width="116" height="20" viewBox="0 0 116 20" fill="none" xmlns="http://www.w3.org/2000/svg">
<g clip-path="url(#clip0_328_298)">
<path d="M9.09981 2.38995C9.50165 1.70009 10.4983 1.70009 10.9001 2.38995L13.2292 6.38889L17.7522 7.36833C18.5325 7.53729 18.8405 8.48512 18.3086 9.08045L15.2251 12.5314L15.6912 17.1356C15.7716 17.9299 14.9654 18.5157 14.2348 18.1938L9.99998 16.3276L5.76511 18.1938C5.03455 18.5157 4.22827 17.9299 4.3087 17.1356L4.77487 12.5314L1.69141 9.08045C1.15948 8.48512 1.46745 7.53729 2.24771 7.36833L6.77068 6.38889L9.09981 2.38995Z" fill="#F5B300"/>
</g>
<g clip-path="url(#clip1_328_298)">
<path d="M33.0998 2.38995C33.5016 1.70009 34.4983 1.70009 34.9001 2.38995L37.2292 6.38889L41.7522 7.36833C42.5325 7.53729 42.8405 8.48512 42.3086 9.08045L39.2251 12.5314L39.6912 17.1356C39.7716 17.9299 38.9654 18.5157 38.2348 18.1938L34 16.3276L29.7651 18.1938C29.0346 18.5157 28.2283 17.9299 28.3087 17.1356L28.7749 12.5314L25.6914 9.08045C25.1595 8.48512 25.4675 7.53729 26.2477 7.36833L30.7707 6.38889L33.0998 2.38995Z" fill="#F5B300"/>
</g>
<g clip-path="url(#clip2_328_298)">
<path d="M57.0998 2.38995C57.5016 1.70009 58.4983 1.70009 58.9001 2.38995L61.2292 6.38889L65.7522 7.36833C66.5325 7.53729 66.8405 8.48512 66.3086 9.08045L63.2251 12.5314L63.6912 17.1356C63.7716 17.9299 62.9654 18.5157 62.2348 18.1938L58 16.3276L53.7651 18.1938C53.0346 18.5157 52.2283 17.9299 52.3087 17.1356L52.7749 12.5314L49.6914 9.08045C49.1595 8.48512 49.4675 7.53729 50.2477 7.36833L54.7707 6.38889L57.0998 2.38995Z" fill="#F5B300"/>
</g>
<g clip-path="url(#clip3_328_298)">
<path d="M81.0998 2.38995C81.5016 1.70009 82.4983 1.70009 82.9001 2.38995L85.2292 6.38889L89.7522 7.36833C90.5325 7.53729 90.8405 8.48512 90.3086 9.08045L87.2251 12.5314L87.6912 17.1356C87.7716 17.9299 86.9654 18.5157 86.2348 18.1938L82 16.3276L77.7651 18.1938C77.0346 18.5157 76.2283 17.9299 76.3087 17.1356L76.7749 12.5314L73.6914 9.08045C73.1595 8.48512 73.4675 7.53729 74.2477 7.36833L78.7707 6.38889L81.0998 2.38995Z" fill="#F5B300"/>
</g>
<g clip-path="url(#clip4_328_298)">
<path d="M105.1 2.38995C105.502 1.70009 106.498 1.70009 106.9 2.38995L109.229 6.38889L113.752 7.36833C114.532 7.53729 114.84 8.48512 114.309 9.08045L111.225 12.5314L111.691 17.1356C111.772 17.9299 110.965 18.5157 110.235 18.1938L106 16.3276L101.765 18.1938C101.035 18.5157 100.228 17.9299 100.309 17.1356L100.775 12.5314L97.6914 9.08045C97.1595 8.48512 97.4675 7.53729 98.2477 7.36833L102.771 6.38889L105.1 2.38995Z" fill="#F5B300"/>
</g>
<defs>
<clipPath id="clip0_328_298">
<rect width="20" height="20" fill="white"/>
</clipPath>
<clipPath id="clip1_328_298">
<rect width="20" height="20" fill="white" transform="translate(24)"/>
</clipPath>
<clipPath id="clip2_328_298">
<rect width="20" height="20" fill="white" transform="translate(48)"/>
</clipPath>
<clipPath id="clip3_328_298">
<rect width="20" height="20" fill="white" transform="translate(72)"/>
</clipPath>
<clipPath id="clip4_328_298">
<rect width="20" height="20" fill="white" transform="translate(96)"/>
</clipPath>
</defs>
</svg>
