<svg width="256" height="217" viewBox="0 0 256 217" fill="none" xmlns="http://www.w3.org/2000/svg">
<path d="M163.557 4.92765L159.072 -24.3142C156.482 -41.2045 132.771 -42.818 127.916 -26.4344L116.721 11.3487C114.114 20.1489 104.653 24.9563 96.0078 21.8742L41.7933 2.54655C25.8684 -3.13068 13.1674 16.5564 24.9043 28.725L55.2164 60.1524C62.305 67.5018 60.7889 79.5206 52.0973 84.8794L8.01204 112.06C-7.11055 121.384 1.9568 144.726 19.4078 141.396L70.8064 131.589C80.6675 129.707 89.8052 137.266 89.8052 147.305V200.439C89.8052 217.422 112.777 222.706 120.197 207.429L152.372 141.189C156.004 133.711 164.758 130.261 172.515 133.249L234.003 156.935C250.295 163.21 263.429 142.574 250.845 130.472L205.644 87.0004C198.713 80.3348 199.186 69.1048 206.652 63.045L239.022 36.7733C252.122 26.1407 241.974 5.09486 225.497 8.72476L182.814 18.1277C173.787 20.1163 164.958 14.0642 163.557 4.92765Z" fill="white" fill-opacity="0.2"/>
</svg>
