<svg width="100" height="99" viewBox="0 0 100 99" fill="none" xmlns="http://www.w3.org/2000/svg">
<path d="M0.833252 27C0.833252 12.0883 12.9216 0 27.8333 0H72.8333C87.7449 0 99.8333 12.0883 99.8333 27V72C99.8333 86.9117 87.7449 99 72.8333 99H0.833252V27Z" fill="white"/>
<path d="M27.0155 62.1803C30.2184 60.8991 29.2083 59.6427 25.8823 60.776C24.0592 61.3919 23.9113 61.5397 24.3301 62.2049C24.7243 62.8455 25.3402 62.8455 27.0155 62.1803Z" fill="black"/>
<path d="M26.1289 63.3382C24.7738 63.831 24.5274 64.1266 25.1434 64.5947C25.7839 65.0875 27.0897 64.915 28.2969 64.2005C29.9968 63.1658 28.3462 62.5252 26.1289 63.3382Z" fill="black"/>
<path d="M74.8363 49.7382C73.5551 48.802 73.3087 48.3585 73.8261 48.0383C74.1464 47.8412 76.2406 43.505 77.6942 40.0558C79.542 35.6704 79.6898 35.7936 72.6682 35.6704L67.6668 35.5718L68.135 34.6603C72.1755 26.7271 70.6973 23.1055 64.809 26.53C63.3308 27.3923 61.5322 28.4271 60.8178 28.7966C59.2903 29.6343 59.3395 29.8561 59.9555 25.6924C60.5221 21.8244 59.3889 20.6417 56.802 22.391C56.3338 22.7113 54.6831 23.9924 53.1556 25.2242C49.9035 27.8604 50.1745 27.7619 49.4847 26.4315C48.0804 23.7953 45.9861 22.8591 45.1238 24.5098C44.0152 26.6286 42.5617 34.34 43.2269 34.5618C44.0152 34.8328 45.8138 31.9748 46.8239 28.8459C46.9964 28.3531 48.0064 29.4372 48.3267 30.4473C48.7209 31.7038 49.3369 31.4328 53.2049 28.3531C54.6585 27.1706 55.915 26.2344 55.9397 26.2344C55.9889 26.2344 55.8657 27.0474 55.6686 28.0083C54.3875 34.5617 55.8656 33.798 61.6307 30.9154C66.8292 28.3039 66.3365 28.23 65.2771 31.5314L63.9467 35.7197C63.0844 38.4298 63.9467 39.5877 66.1394 38.6761C67.1249 38.2573 74.3189 38.4051 74.3189 38.8239C74.3189 38.9225 73.6291 40.2775 72.8161 41.8051C70.6727 45.7716 70.3277 46.9542 69.6625 47.8412C69.0219 48.6542 69.5146 50.3295 70.5248 50.5266C71.5842 50.7237 72.9886 52.2019 75.6494 54.7396C67.7655 57.8438 67.5929 57.4004 71.732 63.0669C72.8899 64.6683 73.8262 65.9987 73.7769 66.048C73.7276 66.0726 72.077 65.9988 70.0813 65.8509C65.0307 65.4814 64.5872 65.7523 65.819 68.2653C66.5828 69.8175 66.5582 69.8175 64.7104 68.7335C60.867 66.4422 57.9106 67.6987 61.6062 70.0639C70.5248 75.8043 71.6581 75.9522 70.5248 71.3204C69.6871 67.9697 69.7118 67.9204 70.6973 68.0436C72.0523 68.2161 75.8464 68.3146 76.9058 68.6842C80.1579 69.8422 79.542 67.4277 75.1566 61.9829C73.9001 60.4061 72.8653 59.0264 72.8653 58.9032C72.8653 58.6076 78.2116 56.1932 79.3203 55.9961C80.1826 55.8483 80.2564 55.2077 79.6405 54.2468C78.9014 53.0889 77.2507 51.4874 74.8363 49.7382Z" fill="#FEDA79"/>
<path d="M45.5672 67.329C50.8395 67.5753 55.3481 69.4477 60.5465 66.3188C66.9768 62.4754 61.9016 44.5642 57.8118 38.8237C55.1017 35.0296 51.3323 32.9848 46.528 35.5224C43.6208 37.0499 43.0296 37.5426 39.4079 41.5585C37.6833 43.4556 35.7123 45.4019 35.0224 45.8453C34.3326 46.3134 33.495 46.8801 33.1501 47.1018C24.8967 52.793 23.0488 54.2466 22.3836 55.6263C20.5605 59.3958 21.3242 64.2493 24.1821 66.9101C24.9458 67.6246 31.1544 71.7883 31.45 71.7883C31.5486 71.7883 32.0414 72.3549 32.5342 73.0448C36.2051 78.1693 40.3934 79.4258 44.3107 76.6172C47.1193 74.6216 46.9961 73.0201 43.8179 69.9651L42.8325 69.0289L43.8426 67.2058L45.5672 67.329ZM23.517 59.1741C24.4285 56.0698 28.9864 51.6105 28.5922 54.1974C28.0995 57.4248 30.9327 63.2885 34.0369 65.5304L35.3181 66.4667L34.4065 67.0826C29.7747 70.3347 21.9402 64.6189 23.517 59.1741ZM42.9803 73.636C42.2658 74.1781 41.6253 73.1433 41.6253 73.1433C40.5659 72.0839 39.5803 72.5028 40.3194 73.5868C40.8368 74.3259 41.1079 74.3013 40.3687 75.0897C39.3093 76.1983 38.8412 76.0012 36.3036 73.5868C32.3124 69.768 32.0661 69.2014 34.0124 68.413C34.9733 68.0188 34.9979 67.8217 35.5892 68.8811C36.6486 70.7781 37.9297 70.4579 40.4919 70.1622C40.8368 70.113 41.1572 70.2608 41.3789 70.5071L42.0687 71.3448C42.6107 71.8622 43.5223 73.2172 42.9803 73.636ZM40.4673 66.8855C41.3542 67.5507 39.6049 68.8811 38.8412 68.8811C38.3238 68.8811 37.092 67.9942 37.092 67.6246C37.092 67.1319 39.8513 66.4174 40.4673 66.8855ZM34.6283 63.1407C29.0603 58.1147 28.9618 52.3989 34.382 49.0975C37.6833 47.0772 40.5659 44.6874 42.6354 42.2483C43.3992 41.3614 44.3107 39.9571 44.8281 39.5383C45.6411 38.8484 45.7643 39.4643 45.3455 40.1542C40.221 48.3091 43.0296 58.0407 46.7005 62.0566C51.5048 67.3043 59.4625 65.358 59.4625 59.4697C59.4625 58.1393 58.8959 57.8683 58.477 59.0509C55.767 66.9594 50.8642 61.8349 50.8395 61.8349C51.4555 59.7161 51.7511 57.9668 54.7321 56.5379C60.0291 54.0249 55.4713 45.9932 49.8047 47.841C47.4888 48.6047 44.902 47.3975 44.6802 47.1511C44.6802 47.1265 45.1976 40.7947 49.4352 38.2325C50.6424 37.4934 49.7308 36.5079 48.3265 37.1977C47.3903 37.6658 46.9961 37.0992 47.3657 36.6803C48.3758 35.547 50.0757 35.2267 51.1844 35.6948C60.9161 39.7846 67.1739 66.4666 55.3481 66.2449C53.7713 66.2203 50.4454 65.7275 45.5672 65.1609C41.0093 64.6681 38.0283 66.2203 34.6283 63.1407ZM45.2223 50.8467C45.2223 50.5264 45.5179 50.3786 46.6512 50.2554C47.4396 50.1569 48.228 49.9844 48.4251 49.8859C49.3613 49.3438 49.583 49.6148 49.7309 51.4134C49.9033 53.4336 50.6178 55.1089 51.5048 55.577C51.8497 55.7495 52.1207 55.9959 52.1207 56.0944C52.1207 56.2915 48.4497 59.0016 48.1541 59.0016C47.686 59.0262 45.2223 52.1525 45.2223 50.8467ZM53.1801 49.4916C53.5496 50.0583 54.338 52.9408 54.338 53.7292C54.338 54.4191 53.796 53.7785 53.0815 52.251C52.0468 50.1076 52.1453 47.9149 53.1801 49.4916Z" fill="black"/>
</svg>
