<svg width="100" height="99" viewBox="0 0 100 99" fill="none" xmlns="http://www.w3.org/2000/svg">
<path d="M0.5 27C0.5 12.0883 12.5883 0 27.5 0H99.5V72C99.5 86.9117 87.4117 99 72.5 99H27.5C12.5883 99 0.5 86.9117 0.5 72V27Z" fill="white"/>
<path d="M12 19.7634L24.4813 42.2233L53.7861 34.0229L56.5024 11.1733C56.5024 11.1733 49.7235 20.9649 43.8365 19.8369C38.199 18.7568 35.1353 8 35.1353 8C35.1353 8 33.7158 21.0663 27.4049 23.6815C21.6707 26.0578 12 19.7634 12 19.7634Z" stroke="#D7BBF8" stroke-width="3"/>
<path d="M55.7695 47.3012C56.5831 47.3012 57.1363 46.9106 57.6896 45.8693C59.6747 42.1593 61.3019 41.8989 62.1805 45.0882C63.0592 48.2124 66.3788 48.5378 66.3788 45.5113C66.3788 42.1593 61.1066 39.4256 57.3316 40.7924C54.5328 41.8338 53.2311 47.3012 55.7695 47.3012Z" fill="#323231"/>
<path d="M38.3259 48.31C38.3259 45.4136 40.311 44.242 41.2548 46.5526C42.3287 49.1236 44.2162 49.8721 44.9322 47.9845C46.2664 44.5349 39.1069 41.1504 35.8851 43.6888C34.6159 44.6976 33.4769 47.6591 33.9325 48.8307C34.4857 50.2951 38.3259 49.807 38.3259 48.31Z" fill="#323231"/>
<path d="M40.5716 64.6467C49.2933 68.5194 58.1452 67.3478 63.9705 61.555C70.0887 55.4693 67.7456 49.1233 59.8375 50.3275C59.089 50.4251 56.8761 51.2387 54.956 52.1174C51.0508 53.8747 48.6425 54.0049 43.2403 52.7031C34.3559 50.6203 32.0777 60.9041 40.5716 64.6467ZM63.0919 52.8333C64.5889 54.7208 63.9055 57.9427 61.5949 60.1231C60.0653 61.555 60.2281 61.6852 59.1867 58.1054C58.7311 56.5107 58.2103 54.8835 58.0151 54.4605C57.4293 52.9635 62.0505 51.499 63.0919 52.8333ZM53.3288 55.0788C55.2489 54.5581 55.2489 54.5256 56.1276 58.7237C57.1039 63.3449 57.1039 63.41 55.4441 63.9958C52.2223 65.1348 52.5802 65.0697 51.7992 55.4693L53.3288 55.0788ZM45.5509 55.4368H49.1631C49.1631 62.2384 49.2609 62.1408 49.749 64.6141L47.9917 64.2886C45.2906 63.8005 45.5509 63.6052 45.5509 55.4368ZM41.8408 54.3628C42.9798 54.6557 43.468 62.694 42.3615 62.694C41.3201 62.694 38.9119 59.7326 38.5864 58.0077C38.0657 55.1764 39.3675 53.712 41.8408 54.3628Z" fill="#323231"/>
<path d="M61.7573 28.7836C56.648 26.2126 56.5179 27.189 61.3343 31.8752C76.402 46.4873 72.334 68.4868 54.2723 70.2767C40.246 71.6761 30.2551 63.0195 30.5154 50.0021C30.7107 39.6532 37.5123 28.8161 48.7073 27.5144C50.9528 27.254 51.0179 27.189 50.009 26.6357C48.4469 25.757 43.8909 25.9198 41.1247 26.8961C37.5123 28.1978 33.8348 30.8664 30.971 34.316C23.7789 42.9075 24.56 56.4132 30.2226 64.4189C37.2845 74.4098 60.9437 76.1346 69.2424 67.2502C79.6563 56.1203 75.686 35.813 61.7573 28.7836Z" fill="#323231"/>
</svg>
