<svg width="100" height="99" viewBox="0 0 100 99" fill="none" xmlns="http://www.w3.org/2000/svg">
<path d="M0.166626 0H72.1666C87.0783 0 99.1666 12.0883 99.1666 27V72C99.1666 86.9117 87.0783 99 72.1666 99H27.1666C12.2549 99 0.166626 86.9117 0.166626 72V0Z" fill="white"/>
<path d="M62.159 31.791C63.1908 30.5765 64.5563 29.2709 65.1632 28.9065C68.7137 26.7204 70.1096 28.7851 67.3178 31.9428C65.1936 34.3414 64.5261 35.2523 63.9192 36.0417C63.9192 36.0417 62.0617 38.3593 61.5654 38.8206C61.069 39.2819 60.3933 40.0018 59.0941 41.507C58.0017 42.7823 51.137 50.9552 51.137 50.9552L48.2017 54.4333C48.2017 54.4333 42.3588 61.1091 38.7775 65.7176C37.9003 66.8466 36.4563 68.5603 36.4563 68.5603L35.4548 69.5926C32.0258 73.145 29.0216 71.9305 31.692 68.1048L33.0879 66.1313C33.0879 66.1313 35.1179 63.2644 35.7649 62.5487C36.412 61.833 37.6223 60.3985 40.553 56.8402L45.1958 51.1928L47.8966 47.944C48.109 47.9743 57.6073 37.0134 57.6983 36.8312C57.6983 36.8312 58.892 35.3124 59.8659 34.2605C60.695 33.3651 60.7935 33.3698 62.159 31.791Z" fill="#EDD0BE"/>
<path fill-rule="evenodd" clip-rule="evenodd" d="M34.4182 47.2627C25.8056 45.6775 25.2772 31.5172 33.7314 28.5583C35.7392 27.8711 37.747 27.8184 38.6454 28.3995C39.4906 28.9279 39.0153 30.0373 37.9585 30.0373C33.4145 30.0373 31.6179 39.8657 35.6861 42.4018C41.4984 45.9948 47.0992 38.2274 42.8194 32.6266C40.4417 29.5094 43.7708 27.66 46.6239 30.5131C54.7082 38.5974 46.6766 49.5878 34.4182 47.2627ZM58.0974 52.9948C53.5534 54.1046 49.9604 58.7544 49.9604 63.5626C49.9078 73.8131 68.2426 74.9226 72.4166 64.8835C73.9491 61.2375 71.3072 55.7425 68.4537 56.4824C67.2385 56.7993 67.1854 56.9577 67.978 60.0754C69.352 65.5177 63.2756 71.0127 58.89 68.4238C51.5456 64.091 56.6711 52.0964 64.4908 55.3725C66.4459 56.2178 68.9821 56.0067 68.9821 55.0556C68.9821 53.259 62.4303 51.9911 58.0974 52.9948Z" fill="#323231"/>
</svg>
