<svg width="28" height="28" viewBox="0 0 28 28" fill="none" xmlns="http://www.w3.org/2000/svg">
<path d="M0.826742 27.3709C0.675906 27.2872 0.562609 27.0969 0.56006 26.9228C0.559035 26.8528 1.03648 25.555 1.62104 24.0388L2.68388 21.282L2.51208 20.9859C2.19604 20.4412 1.56611 19.1185 1.36967 18.5872C1.1195 17.9105 0.805485 16.6572 0.684841 15.8539C0.567723 15.074 0.549507 13.0543 0.653077 12.3321C1.09939 9.22007 2.38714 6.59185 4.50216 4.47635C6.61499 2.36304 9.27656 1.05476 12.3299 0.628677C12.9861 0.537104 15.037 0.537104 15.6932 0.628677C19.625 1.17737 22.9685 3.23437 25.1469 6.44493C26.3012 8.14607 27.0045 9.97301 27.3426 12.1481C27.4604 12.9062 27.4748 14.974 27.3673 15.6962C26.9103 18.7667 25.5825 21.4537 23.4985 23.5256C20.2488 26.7565 15.6245 28.0993 11.0949 27.1274C9.94723 26.8812 8.22537 26.1977 7.15348 25.563L6.89072 25.4074L4.05291 26.4234C2.49211 26.9823 1.15598 27.4397 1.08372 27.44C1.01146 27.4403 0.89582 27.4092 0.826742 27.3709Z" fill="#25D366"/>
<path d="M19.4985 19.4778C19.101 19.8707 18.6941 20.1215 18.1492 20.3094C17.6395 20.4852 16.7286 20.5319 16.1875 20.41C14.9263 20.1259 12.9952 19.1244 11.3429 17.8977C9.78145 16.7385 8.4372 15.0538 7.31805 12.8535C6.44962 11.1462 6.21918 10.0573 6.49668 8.972C6.80178 7.7788 7.74268 6.79373 8.9031 6.4526C9.11384 6.39064 9.42654 6.36519 9.97686 6.36519C10.6844 6.36519 10.7664 6.37546 10.9005 6.48097C10.9935 6.5542 11.2927 7.08236 11.7145 7.91826L12.3815 9.23978L12.3796 9.70519C12.3779 10.1213 12.3573 10.2141 12.1849 10.5814C12.0788 10.8073 11.8291 11.194 11.63 11.4407L11.2679 11.8893L11.5247 12.4016C12.1926 13.7336 13.1778 14.7068 14.5412 15.3817L15.0027 15.6101L15.3165 15.3269C15.9787 14.7292 16.6379 14.4419 17.255 14.4821C17.6143 14.5056 17.7201 14.5482 18.9519 15.1661C19.6745 15.5285 20.315 15.8796 20.3752 15.9464C20.4719 16.0536 20.4868 16.1594 20.5023 16.8485C20.5187 17.5732 20.5095 17.6603 20.3751 18.0607C20.1857 18.625 19.9095 19.0715 19.4985 19.4778Z" fill="white"/>
</svg>
