<svg width="57" height="56" viewBox="0 0 57 56" fill="none" xmlns="http://www.w3.org/2000/svg">
<rect x="0.50293" width="56" height="56" rx="24" fill="#FAF8F4"/>
<path d="M15.3297 41.3709C15.1788 41.2873 15.0655 41.0969 15.063 40.9228C15.062 40.8528 15.5394 39.555 16.124 38.0388L17.1868 35.282L17.015 34.9859C16.699 34.4412 16.069 33.1186 15.8726 32.5873C15.6224 31.9106 15.3084 30.6573 15.1878 29.8539C15.0707 29.0741 15.0524 27.0543 15.156 26.3321C15.6023 23.2201 16.8901 20.5919 19.0051 18.4764C21.1179 16.3631 23.7795 15.0548 26.8328 14.6287C27.489 14.5372 29.5399 14.5372 30.1961 14.6287C34.128 15.1774 37.4714 17.2344 39.6498 20.445C40.8041 22.1461 41.5074 23.9731 41.8455 26.1482C41.9633 26.9063 41.9777 28.974 41.8702 29.6962C41.4132 32.7668 40.0855 35.4538 38.0015 37.5257C34.7517 40.7565 30.1275 42.0993 25.5978 41.1274C24.4502 40.8812 22.7283 40.1978 21.6564 39.563L21.3936 39.4074L18.5558 40.4235C16.995 40.9823 15.6589 41.4398 15.5866 41.4401C15.5144 41.4403 15.3987 41.4092 15.3297 41.3709Z" fill="#25D366"/>
<path d="M34.0015 33.4778C33.604 33.8707 33.1972 34.1215 32.6522 34.3095C32.1425 34.4853 31.2317 34.532 30.6905 34.4101C29.4294 34.1259 27.4983 33.1245 25.8459 31.8977C24.2845 30.7385 22.9403 29.0538 21.8211 26.8536C20.9527 25.1463 20.7222 24.0573 20.9997 22.972C21.3048 21.7788 22.2457 20.7938 23.4062 20.4526C23.6169 20.3907 23.9296 20.3652 24.4799 20.3652C25.1875 20.3652 25.2694 20.3755 25.4035 20.481C25.4966 20.5542 25.7957 21.0824 26.2176 21.9183L26.8845 23.2398L26.8826 23.7052C26.881 24.1213 26.8603 24.2142 26.6879 24.5814C26.5819 24.8073 26.3322 25.194 26.133 25.4408L25.7709 25.8894L26.0278 26.4017C26.6957 27.7336 27.6808 28.7069 29.0442 29.3817L29.5058 29.6102L29.8195 29.327C30.4817 28.7292 31.141 28.4419 31.758 28.4822C32.1173 28.5056 32.2231 28.5483 33.455 29.1661C34.1776 29.5285 34.8181 29.8797 34.8783 29.9465C34.9749 30.0536 34.9898 30.1595 35.0054 30.8486C35.0217 31.5732 35.0126 31.6603 34.8782 32.0608C34.6888 32.625 34.4126 33.0715 34.0015 33.4778Z" fill="white"/>
</svg>
